<?xml version="1.0" encoding="utf-8"?>
<!-- Generator: Adobe Illustrator 24.2.0, SVG Export Plug-In . SVG Version: 6.00 Build 0)  -->
<svg version="1.1" id="Capa_1" xmlns="http://www.w3.org/2000/svg" xmlns:xlink="http://www.w3.org/1999/xlink" x="0px" y="0px"
	 viewBox="0 0 1000 1000" style="enable-background:new 0 0 1000 1000;" xml:space="preserve">
<style type="text/css">
	.st0{fill:#1C1C1B;}
</style>
<g>
	<path class="st0" d="M156.7,966.84h-5.54H75.4c-23.28,0-42.23-18.95-42.23-42.23V75.4c0-23.27,18.95-42.2,42.23-42.2h75.77h5.54
		c9.18,0,16.61-7.43,16.61-16.6c0-9.18-7.43-16.6-16.61-16.6h-5.54H75.4H0v75.4v849.21v75.43h75.4h75.77h5.54
		c9.18,0,16.61-7.43,16.61-16.61C173.31,974.27,165.88,966.84,156.7,966.84z"/>
	<path class="st0" d="M924.6,0h-75.74h-30.98c-9.18,0-16.61,7.42-16.61,16.6c0,9.17,7.43,16.6,16.61,16.6h30.98h75.74
		c23.28,0,42.23,18.93,42.23,42.2v849.21c0,23.28-18.95,42.23-42.23,42.23h-75.74h-30.98c-9.18,0-16.61,7.43-16.61,16.59
		c0,9.18,7.43,16.61,16.61,16.61h30.98h75.74h75.4v-75.43V75.4V0H924.6z"/>
	<path class="st0" d="M549.37,129.15c-19.51-3.09-39-4.11-58.5-4.11H155.42v13.34c67.7,0,91.3,27.7,91.3,75.9v568.39
		c0,58.47-41.02,78.94-92.33,78.94V875h279.06c140.56,0,401.14-7.21,401.14-383.73C834.58,216.34,669.41,145.57,549.37,129.15z
		 M636.58,773.42c-49.27,58.47-128.28,87.21-203.14,87.21c-51.31,0-81.06-3.1-81.06-71.85V207.11c0-60.52,37.97-68.73,85.19-68.73
		c31.77,0,65.63,8.21,96.39,18.46c54.36,17.45,95.41,55.42,121.05,104.66c37.97,71.81,46.19,154.91,49.24,236.98
		C709.4,617.45,678.61,725.19,636.58,773.42z"/>
</g>
</svg>
